HIERARCHY
ROOT Hips
{
	OFFSET 0.000000 0.000000 0.000000
	CHANNELS 6 Xposition Yposition Zposition Zrotation Yrotation Xrotation 
	JOINT LHipJoint
	{
		OFFSET 0.000000 0.000000 0.000000
		CHANNELS 3 Zrotation Yrotation Xrotation
		JOINT LeftUpLeg
		{
			OFFSET 1.363060 -1.794630 0.839290
			CHANNELS 3 Zrotation Yrotation Xrotation
			JOINT LeftLeg
			{
				OFFSET 2.448110 -6.726130 0.000000
				CHANNELS 3 Zrotation Yrotation Xrotation
				JOINT LeftFoot
				{
					OFFSET 2.562200 -7.039590 0.000000
					CHANNELS 3 Zrotation Yrotation Xrotation
					JOINT LeftToeBase
					{
						OFFSET 0.157640 -0.433110 2.322550
						CHANNELS 3 Zrotation Yrotation Xrotation
						End Site
						{
							OFFSET 0.000000 0.000000 0.000000
						}
					}
				}
			}
		}
	}
	JOINT RHipJoint
	{
		OFFSET 0.000000 0.000000 0.000000
		CHANNELS 3 Zrotation Yrotation Xrotation
		JOINT RightUpLeg
		{
			OFFSET -1.305520 -1.794630 0.839290
			CHANNELS 3 Zrotation Yrotation Xrotation
			JOINT RightLeg
			{
				OFFSET -2.542530 -6.985550 0.000000
				CHANNELS 3 Zrotation Yrotation Xrotation
				JOINT RightFoot
				{
					OFFSET -2.568260 -7.056230 0.000000
					CHANNELS 3 Zrotation Yrotation Xrotation
					JOINT RightToeBase
					{
						OFFSET -0.164730 -0.452590 2.363150
						CHANNELS 3 Zrotation Yrotation Xrotation
						End Site
						{
							OFFSET 0.000000 0.000000 0.000000
						}
					}
				}
			}
		}
	}
	JOINT LowerBack
	{
		OFFSET 0.000000 0.000000 0.000000
		CHANNELS 3 Zrotation Yrotation Xrotation
		JOINT Spine
		{
			OFFSET 0.028270 2.035590 -0.193380
			CHANNELS 3 Zrotation Yrotation Xrotation
			JOINT Spine1
			{
				OFFSET 0.056720 2.048850 -0.042750
				CHANNELS 3 Zrotation Yrotation Xrotation
				JOINT Neck
				{
					OFFSET 0.000000 0.000000 0.000000
					CHANNELS 3 Zrotation Yrotation Xrotation
					JOINT Neck1
					{
						OFFSET -0.054170 1.746240 0.172020
						CHANNELS 3 Zrotation Yrotation Xrotation
						JOINT Head
						{
							OFFSET 0.104070 1.761360 -0.123970
							CHANNELS 3 Zrotation Yrotation Xrotation
							End Site
							{
								OFFSET 0.000000 0.000000 0.000000
							}
						}
					}
				}
				JOINT LeftShoulder
				{
					OFFSET 0.000000 0.000000 0.000000
					CHANNELS 3 Zrotation Yrotation Xrotation
					JOINT LeftArm
					{
						OFFSET 3.362410 1.200890 -0.311210
						CHANNELS 3 Zrotation Yrotation Xrotation
						JOINT LeftForeArm
						{
							OFFSET 4.983000 -0.000000 -0.000000
							CHANNELS 3 Zrotation Yrotation Xrotation
							JOINT LeftHand
							{
								OFFSET 3.483560 -0.000000 -0.000000
								CHANNELS 3 Zrotation Yrotation Xrotation
								JOINT LeftFingerBase
								{
									OFFSET 0.000000 0.000000 0.000000
									CHANNELS 3 Zrotation Yrotation Xrotation
									JOINT LeftHandIndex1
									{
										OFFSET 0.715260 -0.000000 -0.000000
										CHANNELS 3 Zrotation Yrotation Xrotation
										End Site
										{
											OFFSET 0.000000 0.000000 0.000000
										}
									}
								}
								JOINT LThumb
								{
									OFFSET 0.000000 0.000000 0.000000
									CHANNELS 3 Zrotation Yrotation Xrotation
									End Site
									{
										OFFSET 0.000000 0.000000 0.000000
									}
								}
							}
						}
					}
				}
				JOINT RightShoulder
				{
					OFFSET 0.000000 0.000000 0.000000
					CHANNELS 3 Zrotation Yrotation Xrotation
					JOINT RightArm
					{
						OFFSET -3.136600 1.374050 -0.404650
						CHANNELS 3 Zrotation Yrotation Xrotation
						JOINT RightForeArm
						{
							OFFSET -5.241900 -0.000000 -0.000000
							CHANNELS 3 Zrotation Yrotation Xrotation
							JOINT RightHand
							{
								OFFSET -3.444170 -0.000000 -0.000000
								CHANNELS 3 Zrotation Yrotation Xrotation
								JOINT RightFingerBase
								{
									OFFSET 0.000000 0.000000 0.000000
									CHANNELS 3 Zrotation Yrotation Xrotation
									JOINT RightHandIndex1
									{
										OFFSET -0.622530 -0.000000 -0.000000
										CHANNELS 3 Zrotation Yrotation Xrotation
										End Site
										{
											OFFSET 0.000000 0.000000 0.000000
										}
									}
								}
								JOINT RThumb
								{
									OFFSET 0.000000 0.000000 0.000000
									CHANNELS 3 Zrotation Yrotation Xrotation
									End Site
									{
										OFFSET 0.000000 0.000000 0.000000
									}
								}
							}
						}
					}
				}
			}
		}
	}
}
MOTION
Frames: 4
Frame Time: 0.008333
6.967387 16.010511 23.092192 175.714804 -38.431386 -166.691380 0.043268 -15.774974 -13.311457 -4.675526 23.325349 8.161490 2.425310 37.937259 7.177217 0.930953 20.130073 9.011259 1.643761 9.093812 -17.483293 -3.523502 7.950133 -11.771094 15.674727 -1.336614 -28.757166 -3.899157 -28.903350 35.784445 -8.992367 -6.207881 -13.788049 -2.421877 1.238488 -4.513937 5.265781 1.939107 28.066718 -0.157686 -1.018043 -10.131048 -5.291659 -1.212098 -2.493726 -2.071495 -2.887619 -10.101709 -2.275004 -2.592782 20.271387 22.888325 -21.323079 2.703438 12.704572 -2.540568 0.098731 -76.302191 -16.563360 8.896158 -15.650397 -21.241583 16.472621 21.323806 -14.717128 -1.006432 -0.000000 0.000010 -0.000002 0.000000 -0.000000 0.000000 -0.000000 0.000000 0.000000 -9.857466 3.165201 2.640174 75.573372 10.408871 -1.267244 16.561289 17.683507 31.765193 2.435120 22.029933 3.644859 -0.000002 0.000011 0.000003 -0.000000 -0.000000 -0.000000 -0.000000 0.000000 0.000000 
6.986486 16.008258 22.963363 175.929085 -37.410045 -166.955815 0.104362 -15.508419 -13.126694 -3.806714 22.775474 7.642860 3.028169 38.799454 9.906597 0.650496 20.122821 8.863933 1.299671 9.589902 -16.169523 -3.478112 7.983961 -11.788128 16.185463 -0.869926 -28.032202 -2.128561 -27.135791 35.489144 -9.822832 -8.225830 -14.203238 -2.750827 1.083573 -5.448507 4.823090 1.836419 27.972342 -0.081406 -0.927004 -10.171406 -5.097186 -1.128369 -2.328152 -2.134688 -2.848257 -10.355581 -2.209395 -2.547075 20.239321 22.113949 -21.067057 3.408142 12.599984 -2.287823 0.260735 -76.337527 -17.166934 7.910825 -15.512315 -21.267561 16.837223 20.680428 -15.387321 -0.941449 -0.000000 0.000010 -0.000002 -0.000000 0.000000 0.000000 -0.000000 0.000000 -0.000000 -9.876988 3.140076 2.562875 75.884160 10.278145 -1.513967 16.633333 17.381627 31.811006 4.171286 22.161013 4.041757 -0.000002 0.000011 0.000003 0.000000 0.000000 0.000000 0.000000 -0.000000 -0.000000 
7.002327 16.015015 22.838589 176.398995 -36.401856 -167.176318 0.124709 -15.252149 -12.895371 -2.565716 22.937865 6.608120 4.052330 39.308101 13.068296 -0.153864 19.856068 8.718425 0.657724 10.806024 -13.978880 -3.292459 8.179797 -11.848804 16.651806 -0.499438 -27.433195 -0.672688 -25.809984 35.073958 -10.575201 -9.696690 -14.316348 -3.486726 1.816274 -6.344951 4.630376 1.635790 27.758593 -0.027547 -0.819079 -10.272128 -5.212762 -1.019327 -2.255984 -1.939484 -2.788176 -10.562530 -2.178282 -2.494113 20.255547 22.056073 -20.877052 3.728178 12.627761 -1.990436 0.454824 -76.318392 -17.717210 7.459128 -15.118377 -21.415353 16.749937 20.307928 -15.283975 -0.881669 -0.000000 0.000010 -0.000002 0.000000 -0.000000 0.000000 -0.000000 0.000000 0.000000 -9.572574 3.310343 2.307766 76.135337 9.880443 -1.251583 16.508645 17.251015 31.700470 4.431505 22.032738 4.074274 -0.000002 0.000011 0.000003 -0.000000 -0.000000 0.000000 -0.000000 0.000000 -0.000000 
7.020135 16.029429 22.712613 176.767065 -35.519952 -167.364770 -0.219782 -14.913075 -12.508397 -1.140358 22.222025 5.736293 4.592006 39.420176 16.104936 -0.378731 20.449081 8.680535 0.328848 10.570167 -11.297872 -2.875801 8.172165 -11.909054 17.005807 -0.393100 -26.823176 0.097927 -24.924669 34.682050 -10.951529 -10.089540 -14.235695 -3.514442 1.671843 -6.564517 4.491186 1.544736 27.660623 0.023999 -0.826574 -10.438832 -4.956820 -1.069436 -2.625452 -2.117832 -2.706817 -10.372040 -2.169263 -2.390054 20.342796 21.764102 -20.551563 4.134979 12.206095 -1.960974 0.535047 -76.217755 -17.709682 6.693865 -14.782573 -21.482009 17.132645 20.245223 -15.852069 -0.893651 -0.000000 0.000010 -0.000002 0.000000 -0.000000 -0.000000 -0.000000 0.000000 -0.000000 -9.507326 3.603563 2.374023 76.317924 9.366825 -1.545204 16.501357 16.963064 30.594047 6.519718 21.194420 4.354086 -0.000002 0.000011 0.000003 -0.000000 -0.000000 -0.000000 0.000000 0.000000 0.000000 
